<svg aria-hidden="true" style="position: absolute; width: 0; height: 0; overflow: hidden;" version="1.1" xmlns="http://www.w3.org/2000/svg" xmlns:xlink="http://www.w3.org/1999/xlink">
<defs>
<symbol id="heart" viewBox="0 0 16 16">
  <path fill-rule="evenodd" d="M8 1.314C12.438-3.248 23.534 4.735 8 15-7.534 4.736 3.562-3.248 8 1.314z"/>
</symbol>
<symbol id="eye" viewBox="0 0 16 16">
  <path d="M10.5 8a2.5 2.5 0 1 1-5 0 2.5 2.5 0 0 1 5 0z"/>
  <path d="M0 8s3-5.5 8-5.5S16 8 16 8s-3 5.5-8 5.5S0 8 0 8zm8 3.5a3.5 3.5 0 1 0 0-7 3.5 3.5 0 0 0 0 7z"/>
</symbol>
<symbol id="download" viewBox="0 0 16 16">
  <path d="M8 2a5.53 5.53 0 0 0-3.594 1.342c-.766.66-1.321 1.52-1.464 2.383C1.266 6.095 0 7.555 0 9.318 0 11.366 1.708 13 3.781 13h8.906C14.502 13 16 11.57 16 9.773c0-1.636-1.242-2.969-2.834-3.194C12.923 3.999 10.69 2 8 2zm2.354 6.854-2 2a.5.5 0 0 1-.708 0l-2-2a.5.5 0 1 1 .708-.708L7.5 9.293V5.5a.5.5 0 0 1 1 0v3.793l1.146-1.147a.5.5 0 0 1 .708.708z"/>
</symbol>
<symbol id="chat" viewBox="0 0 16 16">
  <path d="M8 15c4.418 0 8-3.134 8-7s-3.582-7-8-7-8 3.134-8 7c0 1.76.743 3.37 1.97 4.6-.097 1.016-.417 2.13-.771 2.966-.079.186.074.394.273.362 2.256-.37 3.597-.938 4.18-1.234A9.06 9.06 0 0 0 8 15z"/>
</symbol>
</defs>
</svg>
